<svg id="Layer_1" data-name="Layer 1" xmlns="http://www.w3.org/2000/svg" viewBox="0 0 343 89.46"><defs><style>.cls-1{fill:#fff;}</style></defs><title>bento-logo</title><path class="cls-1" d="M188,66.92a13.25,13.25,0,0,1-6.44-1.59c-4.76-2.62-7.66-8.18-8-15.29a24.65,24.65,0,0,1,.14-3.8A30.06,30.06,0,0,1,168.06,43l-2-1.48,3-4L171,39a25,25,0,0,0,3.77,2.21c1.53-4.81,4.37-9,8.06-11.37,3.3-2.16,6.78-2.53,9.81-1a7.78,7.78,0,0,1,4.47,8.41c-.73,5.19-5.47,10-10.79,10.9a19.78,19.78,0,0,1-7.78-.29v2c.23,5.33,2.19,9.4,5.4,11.16s7.52,1.2,12.43-1.65l2.14-1.24L201,62.41l-2.14,1.24A22,22,0,0,1,188,66.92Zm-8.56-24a15,15,0,0,0,6.05.29,8.88,8.88,0,0,0,6.73-6.72,2.83,2.83,0,0,0-1.75-3.26c-1.79-.87-3.67-.08-4.92.74A16.78,16.78,0,0,0,179.44,42.94Z"/><path class="cls-1" d="M153.88,61.62c4.47-2.62,6.75-6.7,6.44-11.46a11.25,11.25,0,0,0-7-10.06c-6.53-2.78-16.2-1-24.48,4.15,1.16-8.94,3.39-19.09,4.71-22.89l.81-2.34-4.68-1.63-.81,2.34c-1.78,4.77-4.82,19.05-5.64,29.6a2.47,2.47,0,0,0,4.07,2.09c8.69-7.34,18.87-9,24-6.76a6.27,6.27,0,0,1,4.06,5.82c.18,2.88-1.16,5.19-4,6.86-6,3.5-16.4,3.09-22.74-1L126.54,55l-2.68,4.17,2.08,1.35a28.86,28.86,0,0,0,15.29,4.12A25.24,25.24,0,0,0,153.88,61.62Z"/><path class="cls-1" d="M236.37,26.36c-6.32-2.62-12.38.11-18,4.27V29.7l-.09-2.47-5,.17.09,2.47c0,1.18.11,2.77.21,4.61-1,.87-2.08,1.82-3.1,2.73l-3,2.69,3.29,3.72,3.05-2.7.17-.15c.5,8.11,1.22,17.68,1.85,21.51l.4,2.45,4.89-.81-.4-2.45c-.67-4.06-1.53-16-2-24.79,5.53-4.57,10.83-7.79,15.9-5.7,5.93,2.3,4.58,20.3,2.2,29.29l-.64,2.4,4.79,1.27.64-2.4C241.62,61.23,249,31.24,236.37,26.36Z"/><path class="cls-1" d="M323.16,66.75C336.86,66.33,343,56.16,343,46.27c0-7.8-6.57-18.78-21.17-18.78-6.65,0-12.24,2.17-16.11,6.28a20.31,20.31,0,0,0-5.38,14.1c0,11.6,5.12,15.74,9.5,15.74,6.64,0,9.13-5.9,9.23-6.12l.94-2.37-4.59-1.88-.94,2.29a5.25,5.25,0,0,1-4.66,3.09c-2.95,0-4.54-5.54-4.54-10.76,0-7.11,4.37-15.41,16.53-15.41C333,32.43,338,40.51,338,46.26c0,2.52-.73,15.09-15,15.52l-2.47.08.15,5Z"/><path class="cls-1" d="M290.38,30.13c-4.94,0-11.27,0-18.56.41a25.42,25.42,0,0,1,1.75-2.5l1.57-1.92L271.28,23l-1.57,1.92a33.23,33.23,0,0,0-3.84,6c-4.22.35-8.69.87-13.34,1.58l-2.45.38.76,4.9,2.45-.38c3.59-.56,7.07-1,10.43-1.3-2.4,7.18-2.76,15.09.41,20.59,2,3.5,6.2,7.35,14.65,7.35a34.2,34.2,0,0,0,5.34-.45l2.45-.38-.78-4.9-2.45.38c-7.5,1.19-12.52-.31-14.93-4.48-2.62-4.61-1.85-12.11.75-18.56,8.38-.58,15.65-.58,21.16-.58h2.47v-5Z"/><polygon class="cls-1" points="18.3 14.33 16.1 31 13.88 14.33 10.35 14.77 14.27 44.76 10.35 74.68 13.88 75.12 16.1 58.46 18.3 75.12 21.84 74.68 17.86 44.76 21.84 14.77 18.3 14.33"/><path class="cls-1" d="M89.33,5.75l-.44-1.33-.63-1.26-.89-1.08L86.25,1.2,85.05.56,83.71.13,82.32,0H7.19L5.75.13,4.42.56,3.16,1.2l-1.08.89L1.2,3.16.5,4.42.13,5.75,0,7.19V82.32l.13,1.39L.5,85.05l.69,1.2.89,1.08,1.08.89,1.26.69,1.33.38,1.44.17H82.32l1.39-.13,1.34-.38,1.2-.69,1.08-.89.89-1.08.67-1.23.44-1.33.13-1.39V7.19ZM32.2,14.38l.14-1.44.44-1.39.63-1.2.89-1.14,1.08-.89,1.26-.63L38,7.25l1.35-.06h7.19l1.4.07,1.33.44,1.26.68,1.08.89.89,1.14.69,1.2L53.55,13l.11,1.38v7.19L53.52,23l-.38,1.33-.69,1.26-.89,1.08-1.08.89-1.26.69-1.31.28-1.39.12H39.34L38,28.48l-1.33-.38-1.26-.69-1.08-.89-.89-1.08-.63-1.26-.42-1.32-.13-1.39ZM25,75.17l-.19,1.45-.32,1.25-.69,1.2-.89,1.14-1.08.89-1.2.63-1.39.44-1.39.12H14.38l-1.45-.12-1.33-.44-1.2-.63-1.19-.83-.83-1.2-.63-1.2-.44-1.33-.12-1.41V14.38L7.32,13l.44-1.39.63-1.2.89-1.14,1.07-.87,1.2-.63,1.33-.44,1.5-.12H18l1.39.13,1.39.44,1.2.63L23,9.28l.89,1.14.69,1.2L25,13l.07,1.37Zm57.26,0-.13,1.45-.38,1.25-.63,1.2-.95,1.14-1.08.89-1.2.63-1.39.44-1.39.12H39.33l-1.39-.12-1.33-.44-1.26-.63-1.08-.89-.87-1.14-.63-1.2-.42-1.29-.13-1.45V42.93l.13-1.39.44-1.33L33.42,39l.89-1.08L35.39,37l1.26-.69,1.29-.36,1.39-.13H75.12l1.39.13,1.35.36,1.2.69,1.08.89L81.09,39l.63,1.26.44,1.33.13,1.39Zm0-53.66-.13,1.39-.44,1.33-.63,1.26-.95,1.08L79,27.46l-1.2.69-1.39.38-1.39.12H67.88l-1.39-.12-1.33-.38-1.26-.69-1.08-.89-.89-1.08-.69-1.26-.38-1.33-.13-1.39V14.38L60.86,13l.38-1.39.69-1.2.89-1.14,1.08-.89,1.26-.63,1.33-.44L68,7.19h7.19l1.39.13,1.29.38,1.2.68,1.08.89.95,1.14.63,1.2L82.17,13l.16,1.38Z"/><polygon class="cls-1" points="76.32 15.41 75.57 14.33 74.62 13.44 73.48 12.88 72.22 12.57 70.89 12.57 69.64 12.88 68.5 13.44 67.55 14.33 66.8 15.41 66.36 16.6 66.22 17.86 66.36 19.19 66.8 20.39 67.55 21.47 68.5 22.28 69.64 22.92 70.89 23.23 72.22 23.23 73.48 22.92 74.62 22.28 75.57 21.47 76.32 20.39 76.77 19.19 76.96 17.86 76.77 16.6 76.32 15.41"/><polygon class="cls-1" points="75.31 55.62 74.5 55.81 73.67 56.06 72.92 56.38 72.22 56.76 71.53 57.2 70.83 57.7 70.01 58.27 69.13 58.71 68.12 58.96 67.11 59.02 66.1 58.96 65.08 58.71 64.14 58.27 63.32 57.7 61.99 56.76 60.48 56.06 58.9 55.62 57.26 55.49 55.62 55.62 54.04 56.06 52.53 56.76 51.2 57.7 50.31 58.27 49.43 58.71 48.42 58.96 47.41 59.02 46.4 58.96 45.39 58.71 44.44 58.27 43.62 57.7 42.99 57.2 42.3 56.76 41.55 56.38 40.78 56.06 40.02 55.81 39.21 55.62 38.38 55.49 37.57 55.49 37.57 59.02 38.07 59.09 38.57 59.16 39.08 59.22 39.58 59.41 40.02 59.6 40.47 59.85 40.91 60.1 41.35 60.41 42.67 61.36 44.19 62.05 45.77 62.5 47.41 62.63 49.06 62.5 50.64 62.05 52.15 61.36 53.48 60.41 54.29 59.85 55.24 59.41 56.24 59.16 57.26 59.02 58.27 59.16 59.27 59.41 60.16 59.85 61.05 60.41 62.38 61.36 63.89 62.05 65.47 62.5 67.11 62.63 68.75 62.5 70.33 62.05 71.84 61.36 73.17 60.41 73.54 60.1 73.99 59.85 74.43 59.6 74.93 59.41 75.45 59.22 75.95 59.16 76.45 59.09 76.96 59.02 76.96 55.49 76.14 55.49 75.31 55.62"/><polygon class="cls-1" points="75.31 44.89 74.5 45.08 73.67 45.33 72.92 45.64 72.22 46.02 71.53 46.47 70.83 46.97 70.01 47.53 69.13 47.98 68.12 48.23 67.11 48.29 66.1 48.23 65.08 47.98 64.14 47.53 63.32 46.97 61.99 46.02 60.48 45.33 58.9 44.89 57.26 44.76 55.62 44.89 54.04 45.33 52.53 46.02 51.2 46.97 50.31 47.53 49.43 47.98 48.42 48.23 47.41 48.29 46.4 48.23 45.39 47.98 44.44 47.53 43.62 46.97 42.99 46.47 42.3 46.02 41.55 45.64 40.78 45.33 40.02 45.08 39.21 44.89 38.38 44.76 37.57 44.76 37.57 48.29 38.07 48.36 38.57 48.42 39.08 48.48 39.58 48.67 40.02 48.86 40.47 49.12 40.91 49.37 41.35 49.69 42.67 50.64 44.19 51.32 45.77 51.76 47.41 51.9 49.06 51.76 50.64 51.32 52.15 50.64 53.48 49.69 54.29 49.12 55.24 48.67 56.24 48.42 57.26 48.29 58.27 48.42 59.27 48.67 60.16 49.12 61.05 49.69 62.38 50.64 63.89 51.32 65.47 51.76 67.11 51.9 68.75 51.76 70.33 51.32 71.84 50.64 73.17 49.69 73.54 49.37 73.99 49.12 74.43 48.86 74.93 48.67 75.45 48.48 75.95 48.42 76.45 48.36 76.96 48.29 76.96 44.76 76.14 44.76 75.31 44.89"/><polygon class="cls-1" points="75.31 66.36 74.5 66.55 73.67 66.8 72.92 67.11 72.22 67.49 71.53 67.92 70.83 68.44 70.01 69 69.13 69.44 68.12 69.7 67.11 69.76 66.1 69.7 65.08 69.44 64.14 69 63.32 68.44 61.99 67.49 60.48 66.8 58.9 66.36 57.26 66.22 55.62 66.36 54.04 66.8 52.53 67.49 51.2 68.44 50.31 69 49.43 69.44 48.42 69.7 47.41 69.76 46.4 69.7 45.39 69.44 44.44 69 43.62 68.44 42.99 67.92 42.3 67.49 41.55 67.11 40.78 66.8 40.02 66.55 39.21 66.36 38.38 66.22 37.57 66.22 37.57 69.76 38.07 69.83 38.57 69.89 39.08 70.01 39.58 70.14 40.02 70.33 40.47 70.58 40.91 70.83 41.35 71.15 42.67 72.09 44.19 72.79 45.77 73.23 47.41 73.36 49.06 73.23 50.64 72.79 52.15 72.09 53.48 71.15 54.29 70.58 55.24 70.14 56.24 69.89 57.26 69.76 58.27 69.89 59.27 70.14 60.16 70.58 61.05 71.15 62.38 72.09 63.89 72.79 65.47 73.23 67.11 73.36 68.75 73.23 70.33 72.79 71.84 72.09 73.17 71.15 73.54 70.83 73.99 70.58 74.43 70.33 74.93 70.14 75.45 70.01 75.95 69.89 76.45 69.83 76.96 69.76 76.96 66.22 76.14 66.22 75.31 66.36"/></svg>