<svg id="Layer_1" data-name="Layer 1" xmlns="http://www.w3.org/2000/svg" viewBox="0 0 503.88 270.89"><defs><style>.cls-1{fill:#fff;}</style></defs><title>Artboard 1</title><path class="cls-1" d="M328.11,87.77A87.33,87.33,0,0,0,348,143.36c.46,15-10.21,27.58-10.21,27.58s22.31,1.46,41.27-3.53a87.75,87.75,0,1,0-50.94-79.64M421,124.85a8.66,8.66,0,0,1-9.94,0c-10.78-7.53-35.32-26.59-35.32-43.94,0-22.22,24.89-31,40.29-15.62,15.41-15.41,40.29-6.6,40.29,15.62,0,17.35-24.55,36.41-35.32,43.94"/><path class="cls-1" d="M141.5,269.93c-6.05,0-11.5-4.93-11.5-11V195.64h-7.42c-6.05,0-11-5.45-11-11.5s4.93-11.5,11-11.5H130V133.69c0-22.27,18.44-40.39,40.71-40.39A40.48,40.48,0,0,1,207,115.65a10.3,10.3,0,0,1,1.26,4.67,10.4,10.4,0,0,1-10.38,10.43c-3.26,0-6.29-1.51-9.49-5.51-2.37-3-5.54-8.39-13.33-9.67a22.46,22.46,0,0,0-3.83-.3A18.28,18.28,0,0,0,153,133.69v38.95h30.43c6.05,0,11,5.45,11,11.5s-4.93,11.5-11,11.5H153v63.31C153,265,147.55,269.93,141.5,269.93Z"/><path class="cls-1" d="M238.5,269.93c-6.05,0-11.5-4.93-11.5-11V195.64h-7.42c-6.05,0-11-5.45-11-11.5s4.93-11.5,11-11.5H227V133.69c0-22.27,18.44-40.39,40.71-40.39A40.48,40.48,0,0,1,304,115.65a10.3,10.3,0,0,1,1.26,4.67,10.4,10.4,0,0,1-10.38,10.43c-3.26,0-6.29-1.51-9.49-5.51-2.37-3-5.54-8.39-13.33-9.67a22.46,22.46,0,0,0-3.83-.3A18.28,18.28,0,0,0,250,133.69v38.95h30.43c6.05,0,11,5.45,11,11.5s-4.93,11.5-11,11.5H250v63.31C250,265,244.55,269.93,238.5,269.93Z"/><path class="cls-1" d="M50.82,270.89a51.32,51.32,0,0,1-29.09-9l-3.2,3.94c-.22.27-.45.52-.69.77a10.66,10.66,0,0,1-1.57,1.32A11.62,11.62,0,0,1,14.4,269a11.67,11.67,0,0,1-2.12.68,7.75,7.75,0,0,1-1.79.25C4.43,269.93,0,265,0,258.95V104.28c0-6.06,3.95-11,10-11s10,4.93,10,11v72.47c11-6.14,19.64-9.48,30.33-9.48,28.57,0,52.05,23.24,52.05,51.8A51.66,51.66,0,0,1,50.82,270.89Zm0-81.66a29.85,29.85,0,1,0,29.84,29.84A29.87,29.87,0,0,0,50.82,189.23Z"/></svg>