<?xml version="1.0" encoding="utf-8"?>
<!-- Generator: Adobe Illustrator 21.0.0, SVG Export Plug-In . SVG Version: 6.00 Build 0)  -->
<svg version="1.1" id="Layer_1" xmlns="http://www.w3.org/2000/svg" xmlns:xlink="http://www.w3.org/1999/xlink" x="0px" y="0px"
	 viewBox="0 0 500 369.8" style="enable-background:new 0 0 500 369.8;" xml:space="preserve">
<style type="text/css">
	.st0{fill:#FFFFFF;}
</style>
<g>
	<path class="st0" d="M497.6,0c1,6.7-0.6,12.6-5.2,17.8C485,11.2,486.1,5.3,494,0C495.2,0,496.4,0,497.6,0z"/>
	<path class="st0" d="M329.9,361.1c-9.4,1-11.9-4.1-13.9-11.2c-18.6-65.6-37.6-131-56.4-196.5c-1.6-5.7-5.4-13,3.4-14.9
		c6.9-1.5,5.5,6.5,6.7,10.5c19.9,68.3,39.7,136.7,59.4,205.1C329.7,356.3,329.6,358.6,329.9,361.1z"/>
	<path class="st0" d="M339.5,337.6c-19.3-67.6-38.1-133.3-56.9-199.1c-1.4-5-5.5-11,2.4-13.5c9.7-3.1,6.9,7,7.8,10.2
		c17.7,59.4,34.8,119,51.9,178.6C346.9,321.4,348.7,329,339.5,337.6z"/>
	<path class="st0" d="M301.5,352.3c0,0.1-0.3,2.7-3.2,3c-2.2,0.2-5.6-0.4-6.5-1.8c-2.2-3.4-3.7-7.5-4.8-11.5
		c-16.8-57.8-33.4-115.7-50.1-173.5c-0.5-1.7-0.6-3.6-1.3-5.3c-1.9-5.2-2-10.2,4.5-11.3c6.1-1,5.5,5.3,6.5,8.7
		c12.1,41.6,24.1,83.3,36,124.9C288.7,307,294.7,328.4,301.5,352.3z"/>
	<path class="st0" d="M356.6,302.6c-13.8-47.8-27.2-94.4-40.7-141.1c-3.8-13.3-7.4-26.6-11.3-39.9c-1.3-4.4-1.9-8.5,3.4-10.4
		c7.1-2.5,6.3,4.3,7.2,7.3c16,54.8,31.7,109.7,47.5,164.5C364.8,290.2,362.6,295.9,356.6,302.6z"/>
	<path class="st0" d="M218.4,164.9c5.6-0.1,3.7,6,4.6,9c16.1,54.9,31.9,110,47.6,165c1,3.5,5.1,8.5-1.4,10.2
		c-5.8,1.6-8.2-2.9-9.6-8.1c-5.8-20.9-11.9-41.7-17.9-62.6c-9.4-33-18.8-66.1-28.4-99C211.6,173.6,208.2,167.8,218.4,164.9z"/>
	<path class="st0" d="M243.1,336.4c0.6,4.2,1.1,7.1-2,7.5c-2.2,0.3-5.5-0.5-6.6-2c-2.3-3.3-3.9-7.3-5.1-11.3
		c-13-45.2-25.9-90.4-38.8-135.5c-1.6-5.6-5.8-13,2.5-15.4c8.2-2.4,6.4,6.7,7.6,11c13.8,46.8,27.2,93.8,40.8,140.7
		C242.2,333.5,243,335.8,243.1,336.4z"/>
	<path class="st0" d="M373.1,266.3c-15.3-53-30-103.7-44.6-154.5c-1.4-4.9-5.2-11.5,2.6-13.6c8.9-2.4,6.8,6.7,8,10.8
		c13.4,45.5,26.1,91.2,39.6,136.7C381,253.4,380.8,259.2,373.1,266.3z"/>
	<path class="st0" d="M214.9,332.7c0.1,7.8-4.9,5.4-8.3,3.9c-4.5-1.9-4.1-7.2-5.2-11c-11.5-39.2-22.9-78.5-33.9-117.9
		c-1.4-5.1-6.2-12.9,2.9-14.8c7.3-1.5,6.4,6.8,7.8,11.4c11.6,39.9,23,79.8,34.4,119.7C213.3,327,214.1,329.9,214.9,332.7z"/>
	<path class="st0" d="M389.9,231.3c-13-45.4-25.8-90.5-38.9-135.5c-1.5-5.2-2.7-9.9,3.4-11.7c7.9-2.3,6.4,5.7,7.4,9
		c11.5,38.6,22.6,77.3,33.7,116C397.8,217.1,397.9,224.7,389.9,231.3z"/>
	<path class="st0" d="M187.6,331.6c-8.5,1.1-12.1-1.1-14.1-8.6c-9.6-34.9-19.8-69.6-29.9-104.3c-1.4-4.7-4-9.5,2.9-12
		c8.8-3.2,6.6,5.4,7.6,8.5C165.5,253.8,176.4,292.5,187.6,331.6z"/>
	<path class="st0" d="M407.2,197.7c-11.8-41.2-22.5-79.2-33.6-117.1c-1.4-4.8-1.1-8.7,3.7-10.3c6.6-2.2,6.2,4.1,7.2,7.5
		c9.4,32.2,18.2,64.7,28,96.8C415,182.7,412.7,188.6,407.2,197.7z"/>
	<path class="st0" d="M159,325.5c-8.7,2.4-12.1-0.9-14.1-7.9c-8-28.3-16.4-56.5-24.5-84.8c-1.3-4.5-3.4-10.3,3.1-12.3
		c7.4-2.3,6.4,4.7,7.5,8.7C140.4,261.1,149.7,293.2,159,325.5z"/>
	<path class="st0" d="M423.9,161.2c-9.6-32.8-18.3-62.5-27-92.3c-1.4-4.7-2.9-10.1,3.5-12c8.2-2.4,6.1,5.2,7.2,8.8
		c7.3,24.2,13.9,48.6,21.4,72.7C431.2,145.9,430.8,152.1,423.9,161.2z"/>
	<path class="st0" d="M130.3,320c-8.8,1.1-12.5-1.5-14.4-8.8c-5.7-22-12.1-43.9-18.6-65.7c-1.5-5.2-2.5-10,3.5-11.7
		c7.5-2.1,6.4,5.6,7.4,9C115.9,268,122.8,293.4,130.3,320z"/>
	<path class="st0" d="M440.5,125.7c-7-24.3-13.5-48-20.7-71.6c-1.7-5.7-1.8-9.6,4.4-11.2c7.5-2,5.3,5.4,6.2,8.1
		c5.6,17.2,10.1,34.7,15.5,51.9C448.6,111.3,447,118.3,440.5,125.7z"/>
	<path class="st0" d="M101.7,313.9c-5.3,2.4-9.8,0.9-10.8-1.9c-6.5-19.4-12.3-38.9-18-58.5c-0.9-3.1,2.4-5.3,5.4-6.2
		c4.3-1.3,4.7,1.9,5.5,4.9C89.8,272.7,95.7,293.4,101.7,313.9z"/>
	<path class="st0" d="M457.3,90.4c-5.4-19-10-35.4-14.8-51.7c-1.2-4-0.6-7,3.1-9c2.4-1.3,5.3-1,5.9,1.6c4.2,16.5,13,31.9,11.6,49.6
		C463,83.2,460.5,85.3,457.3,90.4z"/>
	<path class="st0" d="M72.5,305.7c-0.4,0.8-1.2,3.3-2.1,3.3c-3.5,0-7.8,0.3-9.2-3.8c-3.9-12.5-7.5-25-10.9-37.6
		c-0.9-3.3,1.4-5.5,4.4-6.7c2.9-1.1,4.9,0.7,5.5,2.8C64.4,277.3,68.3,291,72.5,305.7z"/>
	<path class="st0" d="M473.8,53.6c-3.1-10.2-5.8-19.1-8.6-28c-1.5-4.9,0.3-8.5,4.8-9.9c5.3-1.6,5.3,3,6.1,6.4
		C478.9,32.3,486,42.9,473.8,53.6z"/>
	<path class="st0" d="M37.6,302.9c-10.2-2.5-7.5-13.8-10.9-21.4c-1.9-4.2,4.1-8.1,5.7-7.4c9.9,4.5,7,15.8,11,23.7
		C44.6,300.4,43.8,303.9,37.6,302.9z"/>
	<path class="st0" d="M15,293c0.7,4.1-1.6,5.1-4.9,4.7C7,297.4,3.5,296,4,292.9c0.3-2.1,3.7-4.6,6.2-5.3C14,286.5,14.4,290.1,15,293
		z"/>
</g>
</svg>
