<?xml version="1.0" encoding="utf-8"?>
<!-- Generator: Adobe Illustrator 21.0.0, SVG Export Plug-In . SVG Version: 6.00 Build 0)  -->
<svg version="1.1" id="Layer_1" xmlns="http://www.w3.org/2000/svg" xmlns:xlink="http://www.w3.org/1999/xlink" x="0px" y="0px"
	 viewBox="0 0 500 92" style="enable-background:new 0 0 500 92;" xml:space="preserve">
<style type="text/css">
	.st0{fill:#FFFFFF;}
</style>
<g>
	<g>
		<path class="st0" d="M34.3,2H0v88h33.8C65.2,90,83,71,83,45.7v-0.3C83,20.2,65.5,2,34.3,2z M58,46.1C58,60.2,49.2,69,34.7,69H24
			V23h10.7C49.2,23,58,31.8,58,45.8V46.1z M99,90h25V2H99V90z M179.8,35.2c-12.1-2.8-15.8-4.5-15.8-8.5v-0.3c0-3.1,3.4-5.6,9.2-5.6
			c7.7,0,16.7,3,24.7,8.6l12.2-17.2C200.6,4.7,188.8,0.7,174,0.7c-20.9,0-34,11.8-34,28V29c0,18,14,23.3,32.6,27.5
			c11.8,2.8,14.4,4.8,14.4,8.4v0.3c0,3.8-2.9,6-9.4,6c-10.1,0-19.4-3.6-28-10.5l-13.3,16.1c10.7,9.6,25.7,14.5,41.2,14.5
			c21.2,0,35.6-10.6,35.6-28.5v-0.3C213,46.1,199.8,39.6,179.8,35.2z M319,46v-0.3c0-25.2-19.9-45.3-46.9-45.3
			C245.2,0.4,225,20.8,225,46v0.2c0,25.2,19.7,45.3,46.6,45.3c10,0,18.9-2.9,26.4-7.8l9.5,8.6l12.2-13.6l-8.7-7.6
			C316,64,319,55.2,319,46z M293.9,46.5c0,3-0.5,5.9-1.5,8.5l-11.9-10.8L268.3,58l12.1,10.4c-2.6,1-5.7,1.6-9,1.6
			C258.1,70,249,58.9,249,46.2V46c0-12.6,9-23.7,22.2-23.7c13.5,0,22.8,11.1,22.8,23.9L293.9,46.5L293.9,46.5L293.9,46.5z M389.7,51
			c0,13-6.1,18.3-15.9,18.3c-9.7,0-15.9-5.8-15.9-18.4V2h-24v49.4c0,27.4,15.4,40.1,40.3,40.1c24.8,0,40.7-12.4,40.7-40.7V2h-25v49
			H389.7z M468.8,35.2c-12.1-2.8-13.8-4.5-13.8-8.5v-0.3c0-3.1,2.2-5.6,8.1-5.6c7.7,0,16.1,3,24.1,8.6l11.9-17.1
			c-9.5-7.6-20.8-11.6-35.6-11.6c-20.9,0-33.5,11.8-33.5,28V29c0,18,14.5,23.3,33.1,27.5c11.8,2.8,14.9,4.8,14.9,8.4v0.2
			c0,3.8-4,6-10.5,6c-10.1,0-20-3.6-28.6-10.5l-13.6,16.1c10.7,9.6,24.7,14.5,40.2,14.5c21.2,0,34.5-10.6,34.5-28.5v-0.3
			C500,46.1,488.8,39.6,468.8,35.2z"/>
	</g>
</g>
</svg>
