<?xml version="1.0" encoding="utf-8"?>
<!-- Generator: Adobe Illustrator 21.0.0, SVG Export Plug-In . SVG Version: 6.00 Build 0)  -->
<svg version="1.1" id="Layer_1" xmlns="http://www.w3.org/2000/svg" xmlns:xlink="http://www.w3.org/1999/xlink" x="0px" y="0px"
	 viewBox="0 0 500 500" style="enable-background:new 0 0 500 500;" xml:space="preserve">
<style type="text/css">
	.st0{fill:#FFFFFF;}
</style>
<path class="st0" d="M259.1,492.5c-59.4,0-113.7-21.7-155.7-57.6L0,449l39.9-98.4C26,319.9,18.2,285.9,18.2,250
	C18.2,116.1,126.1,7.5,259.1,7.5C392.2,7.5,500,116.1,500,250S392.2,492.5,259.1,492.5z M391,249.3v-0.7
	c0-70-49.8-119.6-134.9-119.6H164v242h90.7C340.5,371,391,319.3,391,249.3L391,249.3z M257.1,312H230V188h27.1
	c39.5,0,65.9,22.9,65.9,61.7v0.7C323,289.5,296.6,312,257.1,312z"/>
</svg>
