<svg id="Layer_1" data-name="Layer 1" xmlns="http://www.w3.org/2000/svg" viewBox="0 0 823.61 633.14"><defs><style>.cls-1{fill:#fff;}</style></defs><title>dolody-logomark</title><path class="cls-1" d="M87.49,530.28c.67,1.71,2.9,4.08,5.94,6.33,11,8.14,38,17.65,78.2,17.65h.28c37.76,0,62.38-8.46,67.81-12.3,17-12.36,38.24-18.9,61.26-18.9,25.42,0,53.89,7.75,84.61,23,10,5,19,10.1,26.84,14.93,8.92-5.67,18.2-11,27.16-15.61,31.08-15.94,59.83-24,85.45-24,23.7,0,45.4,7,62.75,20.24,5.56,4,30.83,12.57,70,12.57h.31c42.65-.05,71.13-10.09,82.57-18.68,3.54-2.66,5.28-4.91,5.7-6s.48-5.51-2.57-13.35c-11.18-28.74-19-55.49-23.34-79.5-3.26-18.18-4.45-35-3.55-50,1.27-21.11,6.68-39.7,16.09-55.34C719.68,307.5,714.46,277,717,238.41c2.26-33.88,10.58-73.78,24.74-118.57,2.07-6.56,2.67-12.16,1.66-15.38s-4.81-6.43-7.82-8.57c-11.5-8.17-39-17.71-78.51-17.71h-1.68c-37.38.25-61.71,8.79-67.07,12.65-17.24,12.84-38.81,19.63-62.35,19.63-25.54,0-54.21-7.78-85.22-23.12-10.4-5.15-19.79-10.49-27.88-15.48-8.93,5.55-18.22,10.79-27.17,15.28-30.89,15.49-59.37,23.35-84.65,23.35-23.51,0-45-6.88-62.17-19.91-5.16-3.67-28.22-11.78-63.4-12.08h-1.94c-37.94,0-64.47,9-76.65,17.47-3.21,2.23-7.41,5.72-9.13,9.65-2.46,5.6-.3,14.8,1.21,19.8,15.57,51.63,22.93,94,22.49,129.56-.37,30.32-6.67,56-18.73,76.44,26.5,41.51,25.39,102.13-3.34,185.09C86.88,523.86,86.79,528.53,87.49,530.28Z"/><path class="cls-1" d="M422.76,28.55h0m-9.89,7.35c20.82,14.59,69,44.56,113.14,44.56,17.28,0,32.24-4.61,44.45-13.7,11.75-8.76,43.3-18.3,84.77-18.58h1.88c39.55,0,75.39,8.69,95.89,23.26,10,7.08,16.19,14.93,19,24,3,9.36,2.39,20.6-1.67,33.44-13.43,42.51-21.31,80-23.41,111.53-2.48,37.11,3,64.44,16.87,83.57a65.11,65.11,0,0,0,6.87,8,64.44,64.44,0,0,0-10.59,12.42c-13.6,20.74-16.92,49.17-10.16,86.91,4.93,27.54,14.56,55.39,21.77,73.91C777,518.89,778,530.57,774.45,540c-2.64,7.07-8,13.65-15.8,19.54-20.52,15.41-58.11,24.64-100.51,24.69h-.38c-43.75,0-76.36-9.69-88.15-18.7-12.08-9.23-27.49-14.11-44.57-14.11-20.81,0-45,7-71.76,20.71a316.61,316.61,0,0,0-40.63,25c-20.7-14.55-68-44.06-111.67-44.06-16.9,0-31.59,4.44-43.66,13.2-11.91,8.64-43.71,18-85.34,18h-.35c-40.26,0-76.18-8.8-96.06-23.55-18.27-13.54-22.74-30.2-14.49-54,13.66-39.44,20.66-73.37,20.78-100.84.12-24.95-5.34-45.49-16.21-61a68.49,68.49,0,0,0-11.39-12.63,68.15,68.15,0,0,0,8.27-9.34c12.24-16.62,18.62-39.58,19-68.24.39-32-6.75-72.54-21.22-120.53-4.87-16.12-4.85-29.37,0-40.51,3.64-8.31,10.2-15.79,19.5-22.25,20.6-14.29,55.65-22.82,93.75-22.82h2.19c39.85.34,70,9.66,81.26,18.17,12.08,9.17,26.9,13.82,44.06,13.82,20.57,0,44.52-6.79,71.19-20.17A317.56,317.56,0,0,0,412.87,35.9M412.81,0a16,16,0,0,0-9.88,3.43,281.81,281.81,0,0,1-45,28.29c-21.87,11-41.53,16.77-56.85,16.77-10,0-18.32-2.46-24.71-7.31C256.82,26.32,218.37,16.86,176,16.5h-2.46c-45,0-85.85,10.4-112,28.53C38.36,61.14,14,91.28,29.65,143.31c30.1,99.8,20.48,142.4,7.11,160.56C27.61,316.29,16.38,316.65,16,316.66a15.92,15.92,0,0,0-.44,31.83c1,.06,14.43,1.13,23.89,14.66,11.44,16.36,19.24,52.73-8.58,133.06-16.22,46.81,5,74.9,25.66,90.21,25.58,19,67.54,29.84,115.12,29.84H172c43.8,0,83.69-9.28,104.12-24.09,6.5-4.72,14.87-7.11,24.88-7.11,35.71,0,82.32,29.22,102,44.67a15.92,15.92,0,0,0,19.88-.15,279,279,0,0,1,45.05-29c21.93-11.24,41.69-17.19,57.16-17.19,10.14,0,18.6,2.54,25.15,7.54,20.39,15.58,61.61,25.27,107.57,25.27h.38c49.84-.06,93.49-11.4,119.73-31.11,20.92-15.71,42-44.33,23.68-91.44-14-36.11-34.64-101.22-14.67-131.67,8.37-12.76,20.8-13.47,21.24-13.5a15.91,15.91,0,0,0-.37-31.82h0c-.4,0-10-.4-18-11.44-18.38-25.41-14.32-86.17,11.12-166.7C813.1,99.9,803,67.68,771.54,45.36c-26.1-18.55-67.8-29.18-114.43-29.18H655c-43.71.29-83.44,9.84-103.68,24.91-6.57,4.89-15.1,7.37-25.34,7.37-36.07,0-83.41-29.49-103.4-45.08A16,16,0,0,0,412.81,0Z"/></svg>