<?xml version="1.0" encoding="utf-8"?>
<!-- Generator: Adobe Illustrator 21.0.0, SVG Export Plug-In . SVG Version: 6.00 Build 0)  -->
<svg version="1.1" id="Layer_1" xmlns="http://www.w3.org/2000/svg" xmlns:xlink="http://www.w3.org/1999/xlink" x="0px" y="0px"
	 viewBox="0 0 500 84.7" style="enable-background:new 0 0 500 84.7;" xml:space="preserve">
<style type="text/css">
	.st0{fill:#FFFFFF;}
</style>
<g>
	<g>
		<path class="st0" d="M258.4,75.4c-0.7,0.6-1.4,1.2-2.1,1.8c-5,4.2-10.8,5.8-17.2,5.3c-6.3-0.6-10.9-4.1-14.1-9.4
			c-0.3-0.5-0.6-1.1-1-1.7c-0.2,0.2-0.4,0.4-0.5,0.6c-4.1,5.7-9.5,9.3-16.5,10.3c-5.4,0.8-10.6,0.3-15.3-2.7
			c-2.8-1.7-4.7-4.2-5.8-7.3c-0.1-0.3-0.2-0.5-0.3-0.9c-0.6,0.5-1.2,1-1.7,1.5c-3.2,2.7-7,4-11.1,4.4c-0.4,0-0.8,0.2-1.2,0.1
			c-2.9-0.4-5.5,0.7-8,2c-3.4,1.7-7.2,2.5-11,2.8c-3.1,0.2-6.1,0.3-9.2,0.3c-2.2,0-4.3-0.5-6.2-1.6c-1.4-0.8-2.4-2-3-3.5
			c-0.1-0.3-0.2-0.6-0.4-1c-0.3,0.2-0.5,0.3-0.7,0.5c-3.9,3-8.2,5-13.1,5.6c-8.7,1-15.2-4.9-16.1-12.3c-0.2-1.9-0.1-3.8,0-5.7
			c0.1-2.8,0.4-5.6,0.6-8.4c0.2-3.3,0.3-6.5,0.3-9.8c0-0.9-0.1-1.9-0.3-2.7c-0.7-2.5-2.4-3.9-4.9-4.2c-3.7-0.4-7.2,0.3-10.2,2.6
			c-3.2,2.4-4.8,5.7-4.9,9.6c-0.1,5.5,0.2,11,0.3,16.5c0,2.5,0.2,5,0,7.4c-0.2,3.3-3.1,6-6.3,6.2c-4.2,0.3-7-2.8-7.4-5.7
			c-0.2-1.4-0.1-2.8-0.1-4.2c0-1.5,0-3,0-4.8c-0.2,0.4-0.4,0.6-0.5,0.8c-1.3,2.3-2.5,4.8-4.1,7c-3.6,5.2-8.7,7.3-14.9,7
			c-2.3-0.1-4.6-0.7-6.7-1.7c-0.6-0.3-1.1-0.3-1.7,0c-4.3,1.8-8.8,3.4-13.4,4.2c-4.4,0.8-8.9,0.9-13.2-0.7C11.4,81.7,8.1,77.9,6,73
			c-1-2.4-2.1-4.8-3.4-7c-1.6-2.8-1.8-5.9-0.5-9c0.9-2.2,2.7-3.3,5-3.5c1.1-0.1,2.3,0,3.4,0.2c2.2,0.5,3.7,2.4,3.9,4.8
			c0.1,1,0,2-0.1,2.9c0,0.4,0,0.7,0.5,0.8c0.9,0.2,1.8,0.4,2.7,0.5c2.1,0.1,3,0.8,3.5,2.9c0.3,1.5,0.3,2.9-0.3,4.3
			c-0.7,1.6-2,2.4-3.7,2.3c-0.5,0-1-0.1-1.6-0.1c-0.4-0.1-0.4,0-0.5,0.1c0.4,0.7,0.8,1.5,1.3,2.1c1.8,2.1,4.1,2.8,6.7,2.9
			c4.3,0.2,8.1-1.5,11.5-4c0.5-0.4,1-0.8,1.5-1.2c0.1-0.1,0.2-0.2,0.3-0.4c-0.5-0.6-1-1.1-1.4-1.7c-3.6-4.6-6-9.8-7.9-15.3
			c-2.1-6.1-3.5-12.4-4.1-18.8c-0.5-4.3-0.7-8.6-0.3-12.9c0.5-5.5,1.4-10.8,4.3-15.6c2.7-4.5,6.7-7,12-7.4c5.1-0.3,9.7,0.8,13.5,4.3
			c3,2.8,4.7,6.3,5.8,10.2c1.2,4.1,1.5,8.3,1.4,12.6c-0.1,9.1-1.2,18-3.3,26.8C54.9,60,52.9,66,49.7,71.4c-0.1,0.1-0.1,0.2-0.2,0.5
			c1,0.2,1.9,0.5,2.8,0.6c2.8,0.2,5.2-0.8,7.3-2.4c3.3-2.4,5.4-5.7,7.1-9.3c2.2-4.7,3.4-9.6,3.9-14.7c0.3-3.9,0.4-7.8,0.5-11.7
			c0.1-3.3,2.1-5.8,5.3-6.5c3.5-0.8,7.2,1.8,7.6,5.5c0,0.3,0.1,0.5,0.2,1c0.3-0.3,0.6-0.5,0.8-0.7c5.1-5,11.3-7.3,18.4-6.9
			c2.3,0.1,4.5,0.6,6.7,1.6c5,2.4,7.7,6.5,8.2,11.9c0.3,3.4,0.1,6.8,0,10.2c-0.1,2.8-0.4,5.5-0.5,8.2s-0.2,5.5-0.2,8.2
			c0,3.1,2.2,4.8,5.1,4c2.8-0.7,5-2.6,6.9-4.7c4.1-4.5,6.6-9.9,8.4-15.7c1.7-5.6,2.5-11.3,2.6-17.1c0-2.8,1.2-4.9,3.7-6.1
			c3.5-1.7,7.8,0.2,8.8,3.9c0.8,2.8,2.3,5.2,4.3,7.2c2.2,2.2,4.6,4.3,6.9,6.4c2.9,2.6,5.5,5.4,7.2,9c2,4.1,2.6,8.3,1.8,12.8
			c-0.1,0.3-0.1,0.6-0.1,1.1c0.4-0.1,0.7-0.2,1-0.3c3.3-1.2,5.7-3.6,7.3-6.7c1.8-3.3,2.6-7,3.2-10.7c0.6-4.2,0.8-8.4,0.5-12.6
			c-0.1-0.9-0.6-0.8-1.1-0.8c-2.4-0.1-4-1.2-4.5-3.4c-0.7-2.7,1.3-5.5,4.1-5.5c1.1,0,1.1,0,1-1.2c-0.1-3.8-0.3-7.6-0.2-11.4
			c0.1-3.5,3.3-6.5,6.9-6.8c3.4-0.3,6.8,2.2,7.7,5.6c0.1,0.5,0.2,1.1,0.2,1.7c0,3.5-0.1,6.9-0.2,10.4c0,1.4,0,1.4,1.4,1.4
			c4.4-0.1,8.8-0.1,13.2-0.2c2.6,0,4.5,1.8,4.9,4.5c0.3,2.2-1.3,4.6-3.6,5.2c-0.5,0.1-1.1,0.2-1.7,0.2c-4.4,0-8.8-0.1-13.2-0.2
			c-1.3,0-1.3,0-1.4,1.3c-0.2,8.1-0.3,16.2-0.5,24.3c0,1.7,0.2,3.3,1,4.8c1.3,2.5,3.4,3.7,6.2,3.7c3.7,0,7-1,9.9-3.4
			c3.7-3.2,5.4-7.3,5.5-12.1c0-5,1-9.7,3.3-14.2c4-7.7,10.2-12.7,18.8-14.3c5.7-1,11.2,0,16.4,2.7c0.6,0.3,0.9,0.3,1.4-0.2
			c2-1.9,4.4-2.4,7-1.3c2.5,1,3.9,3,3.9,5.8c0,4.7-0.2,9.3-0.3,14c-0.1,4.7-0.4,9.4-0.5,14.1c-0.1,1.6-0.1,3.3-0.1,4.9
			c0,2.5,1.8,4.2,4,4.1c2-0.1,3.7-0.9,5.2-2.3c2.9-2.6,4.4-6,5-9.8c0.3-1.9,0.2-3.9,0.4-5.8c0.5-6.6,2.3-12.6,6.7-17.8
			c3.8-4.5,8.8-7.1,14.5-8.2c4.9-0.9,9.8-0.9,14.5,0.9c1.7,0.7,3.3,1.7,4.9,2.7c3.6,2.3,3.1,9.3-1.8,11.2c-2.3,0.9-4.5,0.9-6.4-0.9
			c-4.7-4.7-12.3-1.5-15,2.4c-1.8,2.6-2.8,5.5-3.2,8.6c-0.4,3.1-0.5,6.2,0.5,9.2c1.8,5.7,5.7,9,11.5,10c5.5,1,10.7,0.1,15.5-2.9
			c3.8-2.4,6.5-5.6,7.6-10c0.4-1.6,0.4-3.2,0.5-4.8c0.5-7.9,3.4-14.7,9.2-20.1c4-3.7,8.8-6.1,14.2-6.6c5.2-0.4,10.2,0.4,14.9,2.9
			c0.6,0.3,0.9,0.3,1.4-0.2c2.1-2,4.5-2.4,7.1-1.3c2.5,1.1,3.9,3.1,3.8,5.9c-0.2,6.6-0.4,13.2-0.6,19.8c-0.1,4.2-0.3,8.4-0.4,12.6
			c-0.1,3.4,2.1,5,5.4,4.3c3-0.7,5.2-2.5,7-4.8c2.8-3.6,4.3-7.7,5.4-12.1c0.4-1.6,0.7-3.3,0.9-5c0.1-0.3-0.1-0.9-0.4-1.1
			c-3.9-3-5.8-7-6.4-11.8c-0.3-2.5-0.5-5.1,0.2-7.6c1-3.9,3.8-6.2,7.9-6.2c1,0,2,0,3,0.3c3.3,0.7,4.9,3.1,5.7,6.2
			c0.8,3.4,0.9,7,0.8,10.5c0,0.8,0,1.5-0.1,2.3c0,0.5,0.2,0.7,0.7,0.7c7.6-0.3,14.6-2.3,19.9-8.3c1.4-1.6,3.6-2.1,5.6-1.3
			c1.9,0.7,3.1,2.4,3.1,4.6c0,4.3-1.2,8.3-2.6,12.2c-1.3,3.5-2.8,7-4,10.6c-0.6,1.9-1.1,3.9-1.2,5.9c-0.3,4,2.7,6.4,6.7,5.5
			c3.2-0.8,5.5-2.8,7.4-5.2c2.9-3.7,4.5-8,5.6-12.5c1.2-5,1.8-10.1,1.5-15.3c0-0.1,0-0.2,0-0.3c-0.2-1.6,0-1.4-1.5-1.5
			c-2.5-0.1-4.4-2-4.3-4.5c0-2.4,1.9-4.4,4.4-4.4c0.9,0,1-0.4,1-1.1c-0.1-3.6-0.3-7.2-0.3-10.8c0-4.1,3.5-7.6,7.6-7.5
			c3.8,0.1,7.1,3.1,7.2,6.9c0.1,3.4,0,6.9-0.1,10.3c0,0.2,0,0.4,0,0.6c-0.1,1.2,0,1.3,1.1,1.2c4.5-0.1,9-0.1,13.4-0.2
			c2.5,0,4.4,1.8,4.8,4.4c0.3,2.3-1.3,4.7-3.6,5.3c-0.5,0.1-1.1,0.2-1.7,0.2c-4.4,0-8.8-0.1-13.2-0.2c-1.3,0-1.3,0-1.3,1.3
			c-0.1,7.1-0.3,14.2-0.4,21.4c0,1.8-0.1,3.7,0.2,5.5c0.7,4.1,3.8,6.3,7.9,6c3.5-0.2,5.9-2,7.9-4.7c0.4-0.5,0.7-1,1.2-1.4
			c1.2-1.2,3.1-1.5,4.6-0.6c1.7,1,2.5,2.7,2,4.4c-1,3.3-3,6.1-5.5,8.4c-3.8,3.5-8.2,5.3-13.3,5.3c-3.9,0.1-7.7-0.6-11.1-2.6
			c-2.7-1.6-4.7-3.8-5.9-6.6c-0.1-0.2-0.2-0.5-0.3-0.7c0,0-0.1-0.1-0.2-0.1c-0.1,0.1-0.3,0.2-0.4,0.4c-4.8,5.6-10.8,8.8-18.1,9.5
			c-3.1,0.3-6.2,0.3-9.1-0.7c-5.4-1.8-8.5-5.6-9.5-11.2c-0.9-5.3,0.4-10.3,2.6-15c0.9-2,2.3-3.9,3.5-5.8c0.1-0.2,0.2-0.3,0.4-0.6
			c-0.3,0-0.4,0-0.5,0.1c-3.8,1.7-7.7,2.3-11.8,2.2c-0.8,0-1.1,0.2-1.3,1c-1,5.6-2.5,11-5.2,15.9c-2.9,5.2-6.7,9.5-12.2,12
			c-4.3,2-8.9,2.9-13.6,1.9c-3.6-0.7-6.5-2.8-8.6-5.9c-0.2-0.3-0.4-0.6-0.7-1c-0.7,0.6-1.2,1.1-1.8,1.6c-6.1,5-13.1,6.8-20.7,4.9
			c-5.2-1.3-8.7-4.8-11.2-9.4c-0.2-0.4-0.4-0.7-0.7-1.2c-0.2,0.2-0.4,0.4-0.6,0.6c-4.3,5.6-10,8.7-16.8,10c-5.5,1.1-11,1.2-16.5-0.3
			c-6-1.6-10.9-4.8-14.4-10c-0.1-0.1-0.2-0.3-0.3-0.4c0,0-0.1-0.1-0.2-0.1c-0.2,0.3-0.5,0.7-0.7,1c-3,4.8-6.9,8.4-12.5,9.9
			c-6.1,1.6-11.5,0.5-15.9-4.4C259.4,76.9,259,76.2,258.4,75.4z M348.5,55.9c0.1,1.3,0.2,2.5,0.3,3.8c0.1,0.6,0.2,1.2,0.3,1.7
			c1.1,4.6,4.1,8.5,10.4,8.1c6.6-0.5,11.3-5.2,11.6-11.9c0.2-5.1,0.3-10.1,0.5-15.2c0-0.9-0.3-1.3-1.1-1.6c-3-1.3-6.2-1.6-9.4-1.5
			c-5.1,0.2-8.7,2.6-10.8,7.3C348.9,49.6,348.5,52.7,348.5,55.9z M248.6,39.3c-6.6-0.3-10.8,3.4-12.5,8.5c-1.4,4.3-1.6,8.6-0.8,13.1
			c0.4,2.4,1.3,4.5,3.1,6.3c2.1,2.1,4.6,2.6,7.5,2.4c6.3-0.3,11.2-5,11.5-11.4c0.2-5.3,0.3-10.5,0.5-15.8c0-0.8-0.3-1.3-1-1.6
			C254.1,39.7,251.4,39.3,248.6,39.3z M42.5,63.8c0.3-0.6,0.5-1,0.7-1.5c2.4-5.5,3.5-11.4,4.1-17.3c0.5-5.1,0.8-10.2,0.5-15.3
			c-0.2-3.7-0.9-7.4-2.3-10.8c-0.7-1.6-1.5-3.1-2.9-4.2c-2-1.6-4.6-1.3-6.2,0.7c-0.5,0.6-0.9,1.4-1.2,2.1c-1.3,3-1.6,6.2-1.7,9.4
			c-0.2,6,0.6,11.9,1.8,17.7c1.4,6.2,3.2,12.3,6.4,17.9C41.9,62.9,42.2,63.3,42.5,63.8z M142.9,65.4c0.4,0,0.6,0.1,0.9,0.1
			c2.3,0.2,4.5,0.2,6.8,0.5c2.1,0.2,4.3,0.5,6.4,0.9c0.6,0.1,0.9-0.2,0.9-0.7c0.1-1.1,0.3-2.2,0.3-3.3c-0.1-2.8-1.2-5.3-2.9-7.5
			s-3.4-4.4-5.1-6.6c-0.1-0.1-0.2-0.2-0.4-0.4C148.2,54.4,146,60,142.9,65.4z M407.5,34.6c-0.2-0.7-0.4-1.7-0.8-2.5
			c-0.7-1.3-2.3-1.8-3.5-1.3c-1.3,0.6-2.1,2.1-1.7,3.5c0.7,2.4,2.3,4,4.5,5.1c0.5,0.2,0.8,0.1,0.8-0.4
			C407,37.7,407.2,36.3,407.5,34.6z M10.9,61c-0.2-1.5-0.5-2.7-1.6-3.5c-0.4-0.3-1.1-0.5-1.6-0.6c-0.9,0-1.3,0.8-0.7,1.5
			C7.9,59.6,9.2,60.3,10.9,61z"/>
		<path class="st0" d="M482.4,24.3c1.5-5.4,4.4-9.9,9.9-12.3c2-0.9,4-1.3,6.2-1.3c0.7,0,0.8,0.2,0.6,0.8c-1,4.7-4.1,7.4-8.1,9.4
			c-0.7,0.3-1.4,0.6-2.1,0.9C486.7,22.7,484.5,23.5,482.4,24.3z"/>
	</g>
</g>
</svg>
