<?xml version="1.0" encoding="utf-8"?>
<!-- Generator: Adobe Illustrator 23.1.1, SVG Export Plug-In . SVG Version: 6.00 Build 0)  -->
<svg version="1.1" id="Layer_1" xmlns="http://www.w3.org/2000/svg" xmlns:xlink="http://www.w3.org/1999/xlink" x="0px" y="0px"
	 viewBox="0 0 1416.3 399.7" style="enable-background:new 0 0 1416.3 399.7;" xml:space="preserve">
<style type="text/css">
	.st0{fill:#FFFFFF;}
</style>
<title>Artboard 1</title>
<g>
	<path class="st0" d="M451,149.3l1.7,19.8c12-15.3,28.1-23,48.3-23c21.3,0,35.8,8.5,43.3,25.5c11.5-16.9,28-25.4,49.7-25.4
		c34.3,0,51.9,20.7,52.8,62.2v110H594V211.7c0-8.7-1.5-15-4.4-18.9s-8.2-5.9-16-5.9c-10.4,0-18.2,4.6-23.3,13.9l0.2,2.2v115.5h-52.8
		V212c0-8.9-1.4-15.3-4.2-19.2c-2.8-4-8.2-5.9-16.1-5.9c-10.1,0-17.8,4.6-23.1,13.9v117.7h-52.7V149.3H451z"/>
	<path class="st0" d="M772.1,318.4c-1.9-3.4-3.5-8.5-5-15.2c-9.7,12.2-23.2,18.3-40.6,18.3c-15.9,0-29.5-4.8-40.6-14.4
		c-11.1-9.6-16.7-21.7-16.7-36.3c0-18.3,6.8-32.2,20.3-41.6c13.5-9.4,33.2-14.1,59.1-14.1h16.2v-9c0-15.6-6.7-23.4-20.2-23.4
		c-12.5,0-18.8,6.2-18.8,18.5h-52.7c0-16.3,7-29.6,20.9-39.8c13.9-10.2,31.6-15.3,53.2-15.2c21.6,0,38.6,5.2,51.1,15.8
		c12.5,10.5,18.9,24.9,19.2,43.2v74.8c0.2,15.5,2.6,27.4,7.2,35.6v2.7L772.1,318.4z M739.1,284c6.6,0,12-1.4,16.3-4.2
		c3.9-2.3,7.1-5.6,9.3-9.5v-27h-15.3c-18.3,0-27.5,8.2-27.5,24.7c-0.2,4.4,1.6,8.7,4.8,11.6C730.2,282.6,734.6,284.2,739.1,284
		L739.1,284z"/>
	<path class="st0" d="M949,197l-17.3-1.2c-16.6,0-27.2,5.2-31.9,15.6v107h-52.7v-169h49.4l1.7,21.7c8.8-16.5,21.2-24.8,37-24.8
		c5-0.1,9.9,0.5,14.7,1.9L949,197z"/>
	<path class="st0" d="M1035.9,255.4l-14.8,14.8v48.1h-52.7V78.2h52.7v127.5l5.3-7l39.7-49.4h63.1l-59.2,69.5l63.1,99.5h-60.3
		L1035.9,255.4z"/>
	<path class="st0" d="M1221.6,321.5c-25.9,0-46.9-7.7-63-23.2s-24.1-35.6-24-60.4v-4.4c0-17.3,3.2-32.6,9.6-45.8
		c6-12.8,15.8-23.5,28-30.7c12.3-7.2,26.9-10.8,43.8-10.8c23.7,0,42.5,7.4,56.2,22.1c13.8,14.7,20.6,35.3,20.6,61.6v20.5h-104.7
		c1.9,9.5,6,16.9,12.3,22.3s14.6,8.1,24.7,8.1c16.7,0,29.7-5.8,39.1-17.5l24.1,28.4c-6.6,9.1-15.9,16.3-27.9,21.6
		C1248.2,318.9,1235,321.6,1221.6,321.5z M1215.7,186.8c-15.4,0-24.6,10.2-27.5,30.6h53.1v-4.1c0.2-8.4-1.9-15-6.4-19.6
		S1224,186.8,1215.7,186.8z"/>
	<path class="st0" d="M1416.3,197l-17.3-1.2c-16.6,0-27.2,5.2-31.9,15.6v107h-52.7v-169h49.4l1.7,21.7c8.9-16.5,21.2-24.8,37-24.8
		c5-0.1,9.9,0.5,14.7,1.9L1416.3,197z"/>
</g>
<path class="st0" d="M143.1,0C64.5,0,0,64.4,0,143.1c0,76.1,130.3,246.3,135.4,252.7c1.3,2.6,5.1,3.9,7.7,3.9c2.6,0,6.4-1.3,7.7-3.9
	c5.1-7.8,135.4-176.7,135.4-252.7C286.3,64.4,221.8,0,143.1,0z M219.2,143.1c0,42.5-34.8,76.1-76.1,76.1
	c-42.5,0-76.1-34.8-76.1-76.1c0-42.5,34.8-76.1,76.1-76.1C185.7,67,219.2,100.5,219.2,143.1L219.2,143.1z"/>
</svg>
