<?xml version="1.0" encoding="utf-8"?>
<!-- Generator: Adobe Illustrator 22.0.1, SVG Export Plug-In . SVG Version: 6.00 Build 0)  -->
<svg version="1.1" id="svg2" xmlns="http://www.w3.org/2000/svg" xmlns:xlink="http://www.w3.org/1999/xlink" x="0px" y="0px"
	 viewBox="0 0 147.9 42.9" style="enable-background:new 0 0 147.9 42.9;" xml:space="preserve">
<style type="text/css">
	.st0{fill:#FFFFFF;}
</style>
<title>square-logotext</title>
<g id="layer3">
	<g id="g3486">
		<g id="g3478">
			<path id="path3299" class="st0" d="M38.7,9.4c-2.2,0.1-4.2,0.9-5.9,2.2c-0.7,0.5-1.3,1.1-1.7,1.8c-0.9,1.2-1.6,2.5-2,3.9
				c-1.3,4-0.9,8.4,0.9,12.1c0.7,1.3,1.6,2.5,2.7,3.4c1,0.7,2.1,1.3,3.2,1.7c3.3,1.1,6.9,0.5,9.7-1.6c0.7-0.5,1.3-1.2,1.8-1.9
				c0-0.2,0.5-0.9,0.6-0.3v12.1h3.7V10h-3.7v4.4c-0.5-1-1.3-1.9-2.2-2.6C43.9,10.1,41.4,9.3,38.7,9.4z M40,12.7
				c1.7-0.1,3.4,0.5,4.8,1.5c0.9,0.7,1.7,1.7,2.2,2.7c1.4,3,1.5,6.4,0.4,9.5c-0.5,1.5-1.4,2.7-2.6,3.7c-1.9,1.4-4.3,1.9-6.6,1.4
				c-1.5-0.3-2.8-1.1-3.7-2.2c-1.8-2-2.3-4.8-2.3-7.4c0-2.3,0.6-4.5,1.9-6.4C35.5,13.7,37.7,12.7,40,12.7L40,12.7z"/>
			<path id="path3297" class="st0" d="M11.9,0C9.1,0,6.3,0.9,4,2.6C3.5,2.9,3.1,3.4,2.8,3.9c-1.4,1.7-2,3.9-1.8,6.1
				c0.1,1.6,0.7,3.1,1.7,4.3c0.4,0.5,0.9,1,1.4,1.3c2.9,2.2,6.6,2.6,10,3.7c2.1,0.6,4.6,1.1,6,3c1.1,1.6,1.3,3.6,0.5,5.3
				c-0.6,1.3-1.7,2.4-3,3.1c-2.7,1.1-5.8,1.2-8.6,0.3c-2.1-0.6-3.9-1.9-5.3-3.6c-0.3-0.6-0.7-0.9-1.2-0.3L0,28.9
				c0.6,1,1.4,2,2.4,2.8c1.5,1.3,3.3,2.2,5.3,2.8c3.7,1.1,7.7,0.9,11.3-0.5c1.5-0.6,2.8-1.6,3.8-2.8c1.4-1.6,2.1-3.7,2.2-5.8
				c0.1-2.1-0.6-4.1-1.9-5.6c-0.3-0.4-0.7-0.8-1.2-1.1c-0.7-0.6-1.4-1-2.2-1.4C16,15.4,11.9,15,8.1,13.4c-1.2-0.5-2.2-1.4-2.9-2.5
				C4.4,8.8,5,6.5,6.8,5.1c1.6-1.1,3.6-1.7,5.5-1.6C15.7,3.5,19,5,21.1,7.7l3-2.2c-0.9-1.2-1.9-2.2-3.2-3C18.2,0.7,15.1-0.2,11.9,0z
				"/>
			<path id="path3301" class="st0" d="M57.9,25.9c-0.1,2.2,0.5,4.3,1.8,6.1c0.7,1,1.6,1.7,2.7,2.2c2.7,1.1,5.7,1.1,8.4-0.2
				c1.2-0.6,2.2-1.4,3.1-2.5c0.4-0.3,0.7-1.2,0.9-1.3v4.2h3.7V10h-3.7c0,5,0.1,10-0.1,15c-0.4,4.1-4,7.1-8.1,6.7
				c-0.7-0.1-1.4-0.2-2.1-0.5c-1.6-0.9-2.7-2.5-2.7-4.4c-0.3-3.1-0.1-6.3-0.1-9.4V10h-3.7V25.9z"/>
			<path id="path3303" class="st0" d="M93.4,9.4c-3.2,0.1-6.3,1.2-8.9,3l1.6,2.7c2.2-1.6,4.9-2.4,7.6-2.4c1.9,0,4.2,0.4,5.4,2.1
				c0.7,1.2,0.4,2.8-0.6,3.7c-1.1,0.8-2.4,1.4-3.8,1.5c-2.5,0.5-5.2,0.6-7.6,1.6c-1.1,0.5-2,1.2-2.7,2.2c-1.8,2.7-1.6,6.3,0.5,8.8
				c0.5,0.5,1.1,1,1.7,1.3c2.4,1.2,5.1,1.5,7.6,0.9c1.5-0.3,2.9-1.1,4-2.1c0.6-0.4,0.7-1,1.2-1.3c0.5,0.1,0.1,0.9,0.2,1.3v1.9h3.5
				c0-6.4,0.1-12.7-0.1-19.1c-0.2-1.8-1.2-3.4-2.7-4.4C98.3,9.8,95.9,9.2,93.4,9.4L93.4,9.4z M99.4,21c-0.1,2.6,0.4,5.3-0.9,7.7
				c-1.1,1.9-3.1,3.1-5.3,3.2c-1.9,0.2-4.1-0.1-5.4-1.6C87,29,86.7,27.5,87.2,26c0.4-1.1,1.4-2,2.6-2.3c2.7-0.9,5.6-0.9,8.3-2
				c0.5-0.3,1-0.6,1.4-1V21z"/>
			<path id="path3305" class="st0" d="M120,9.5c-1.9,0.2-3.8,1-5.2,2.3c-0.6,0.7-1.2,1.5-1.7,2.3V10h-3.6v24.5h3.6
				c0-4.8-0.1-9.6,0.1-14.4c0.2-2.4,1.3-4.5,3.2-6c1.9-1.3,4.2-1.5,6.3-0.6c0.4-0.2,0.3-1,0.5-1.4l0.5-1.8
				C122.6,9.7,121.3,9.4,120,9.5L120,9.5z"/>
			<path id="path3307" class="st0" d="M136,9.4c-2.1,0.1-4.2,0.8-6,2c-0.4,0.3-0.8,0.6-1.2,0.9c-0.9,0.9-1.7,2-2.3,3.1
				c-1.8,3.6-2.1,7.8-0.9,11.7c0.5,1.7,1.5,3.3,2.7,4.7c0.4,0.4,0.9,0.8,1.4,1.2c1.9,1.3,4.1,2.1,6.4,2.1c3.1,0.3,6.2-0.6,8.6-2.5
				c0.8-0.5,1.4-1.1,2-1.9l-2.5-2.2c-1.3,1.6-3.1,2.8-5.2,3.1c-2.8,0.6-6.1-0.1-8.1-2.3c-1.6-1.6-2.2-4-2.2-6.2
				c0.3-0.6,1.2-0.1,1.8-0.2h17.1c0.5-3.4-0.4-6.8-2.4-9.5c-0.6-0.8-1.3-1.4-2.1-1.9C141.1,9.9,138.5,9.2,136,9.4z M137.3,12.6
				c2.5,0.1,4.7,1.5,5.9,3.7c0.5,1.2,0.8,2.4,0.9,3.7h-15.2c0.1-1.8,0.8-3.6,2-5c0.4-0.4,0.8-0.8,1.3-1.2
				C133.7,12.8,135.5,12.4,137.3,12.6z"/>
		</g>
	</g>
</g>
</svg>
