<svg id="svg2" xmlns="http://www.w3.org/2000/svg" viewBox="0 0 53.2 53.2"><defs><style>.cls-1{fill:#fff;}</style></defs><title>square-brandmark</title><g id="layer3"><g id="g3486"><path id="path3010" class="cls-1" d="M44.33,0H8.87A8.89,8.89,0,0,0,0,8.87V44.33A8.89,8.89,0,0,0,8.87,53.2H44.33a8.89,8.89,0,0,0,8.87-8.87V8.87A8.89,8.89,0,0,0,44.33,0m-.8,40.71a2.82,2.82,0,0,1-2.82,2.81H12.49a2.82,2.82,0,0,1-2.82-2.81V12.49a2.83,2.83,0,0,1,2.82-2.82H40.71a2.83,2.83,0,0,1,2.82,2.82Zm-9.67-8.47a1.62,1.62,0,0,1-1.61,1.61H21a1.62,1.62,0,0,1-1.61-1.61V21A1.62,1.62,0,0,1,21,19.35H32.25A1.62,1.62,0,0,1,33.86,21Z"/></g></g></svg>