<?xml version="1.0" encoding="utf-8"?>
<!-- Generator: Adobe Illustrator 21.0.0, SVG Export Plug-In . SVG Version: 6.00 Build 0)  -->
<svg version="1.1" id="Layer_1" xmlns="http://www.w3.org/2000/svg" xmlns:xlink="http://www.w3.org/1999/xlink" x="0px" y="0px"
	 viewBox="0 0 372 89.4" style="enable-background:new 0 0 372 89.4;" xml:space="preserve">
<style type="text/css">
	.st0{fill:#FFFFFF;}
</style>
<title>Artboard 1</title>
<path class="st0" d="M89,3.5l-0.3-0.1h0l-1.3-0.3h-0.1h-0.1L87,3l0,0h-0.2l0,0c-7.7-1.8-15.5-2.8-23.4-3H61c-2.5,0-5.1,0.1-7.6,0.2
	h-0.2v0.2c0.4,3.3-0.6,6.6-2.8,9c-2,2.1-4.6,3.5-7.5,3.7c-0.3,0-0.6,0-0.9,0c-2.8,0-5.6-1.1-7.7-3c-1.7-1.6-2.9-3.7-3.5-6V4h-0.2
	C23.2,6.1,15.9,9,9,12.6c-1.7,0.9-3.4,1.8-5,2.8c-0.9,0.5-1.7,1-2.6,1.6L1.2,17l-0.7,0.4c-0.5,0.3-0.5,0.3-0.5,0.5l9.7,21.4l0.1,0.2
	l0.1-0.1c3.5-2,7.1-3.8,10.8-5.4l0.7-0.3l7.6,31.8v0.2l0.2-0.1c1.7-1,3.6-1.8,5.4-2.6c1.9-0.8,3.8-1.4,5.7-2
	c3.4-0.9,6.9-1.4,10.4-1.4c0.5,0,1.1,0,1.7,0c2,0,3.9,0.4,5.8,1c0.8,0.3,1.5,0.8,2.2,1.4c0.6,0.6,0.9,1.4,0.9,2.3
	c0,1.8-1.5,3.4-2.7,4.3c-0.7,0.6-1.5,1-2.3,1.5c-0.8,0.5-1.7,0.9-2.6,1.2c-1.8,0.7-3.8,1.3-5.7,1.7c-2,0.4-4,0.7-6,0.8h-1.5
	c-0.5,0-1,0-1.5-0.1c-0.5,0-0.9-0.1-1.4-0.2l0,0c-0.2,0-0.5-0.1-0.7-0.2c0.2-0.3,0.5-0.6,0.9-0.8c0.4-0.2,0.8-0.5,1.2-0.7
	c0.9-0.4,1.8-0.8,2.7-1.1c1.9-0.6,3.9-1,5.9-1.2c1-0.1,2-0.2,3-0.2h0.4c0.3,0,0.7,0,1.1,0h0.3h0.4h0c1.1-0.4,4.7-1.7,5.7-4.1
	l0.1-0.1l-0.1-0.1L58.4,65h-0.1c-0.4-0.1-0.9-0.3-1.4-0.4c-1-0.2-2-0.4-3-0.5C52.8,64,51.6,64,50.5,64c-0.9,0-1.9,0-2.8,0.1
	c-2,0.2-4,0.5-6,1c-1.9,0.5-3.8,1.2-5.5,2.1c-1.7,0.8-3.1,2.1-4.1,3.7c-0.8,1.5-0.8,3.3-0.1,4.8c1,1.6,2.6,2.7,4.4,3
	c1.6,0.4,3.2,0.6,4.9,0.6h1c2-0.1,4-0.3,6-0.7c2-0.4,4-0.9,5.9-1.6c1.9-0.6,3.7-1.4,5.4-2.4l0.6-0.4l0.5-0.3c0,0.1,0,0.1,0,0.2
	c0,0.2,0,0.4-0.1,0.7c-0.1,0.8-0.5,1.7-1,2.3c-1.1,1.4-2.5,2.5-4.1,3.2c-1.7,0.9-3.5,1.6-5.4,2.1c-1.9,0.5-3.9,1-5.9,1.2l-1.2,0.2
	h-0.2h-0.4H42h-0.2V84l0.3,5.1v0.2h0.2l0.8-0.1c1-0.1,2-0.2,3-0.4c3.9-0.6,7.7-1.8,11.3-3.5c4.1-2,6.7-4.6,7.9-7.7
	c0.7-1.9,0.9-4,0.5-6c-0.1-0.5-0.3-0.9-0.4-1.4c0-0.1-0.1-0.2-0.1-0.2c-0.1-0.1-0.1-0.2-0.2-0.3c0-0.1,0.1-0.2,0.2-0.3l0.1-0.1
	c0.5-0.8,0.9-1.7,1.1-2.7c0.5-1.8,0.4-3.8-0.3-5.6c-0.7-1.7-1.9-3.2-3.5-4.2c-1.7-1-3.6-1.8-5.5-2.1c-2-0.4-4-0.6-6-0.6
	c-4.1,0-8.2,0.5-12.1,1.6c-2.2,0.6-4.4,1.4-6.6,2.3l-7.4-30.8v-0.2L24.9,27c-3.8,1.4-7.5,3-11.1,4.9l-1.6,0.8L6.3,19.9l0.5-0.3h0.1
	c1.7-1,3.4-1.9,5.1-2.8c3.4-1.8,7-3.3,10.5-4.7c1.8-0.7,3.5-1.3,5.3-1.9c0.8,1.3,1.7,2.4,2.8,3.5c2.2,2.1,5,3.6,8.1,4.2
	c1.1,0.2,2.2,0.3,3.2,0.3c2,0,3.9-0.3,5.8-1c4.1-1.5,7.3-4.6,9.2-8.5c0.3-0.6,0.6-1.3,0.8-2c0.1-0.3,0.2-0.7,0.3-1.1
	c0-0.2,0.1-0.3,0.1-0.5h0.5L61,5c3.2,0,6.5,0.2,9.8,0.4c4,0.4,8,0.9,12,1.8h0.1l0.7,0.1l-2.8,13.8L79,20.9l-0.8-0.1
	c-1-0.1-2-0.2-3.1-0.3c-2-0.2-4.1-0.3-6.2-0.4c-1,0-2.1-0.1-3.1-0.1h-0.4v0.1l-1.3,30.5c0,0.1,0.1,0.2,0.2,0.2l0,0
	c0.4,0.2,0.9,0.4,1.3,0.7c0.8,0.5,1.6,1,2.3,1.7c0.2,0.2,0.3,0.3,0.5,0.5l0.2,0.2l0.1,0.1l0.3,0.5V54l1.4-28.9c4,0.2,8,0.7,12,1.4
	l1.5,0.3H84l0.5,0.1h0.1v-0.1l4.7-23C89.4,3.6,89.2,3.6,89,3.5z"/>
<path class="st0" d="M96.7,59.3V40.4h-5.4v-6.2h5.4v-8.9h7.1v8.9h6.6v6.2h-6.6v17.1c0,2.2,1.1,3.9,3.1,3.9c1.1,0,2.2-0.4,3.1-1.2
	l1.7,5.4c-1.3,1.2-3.4,2.1-6.6,2.1C99.5,67.8,96.7,64.8,96.7,59.3z"/>
<path class="st0" d="M114.8,50.6c0-9.5,6.9-17.1,16.6-17.1s16.1,7.5,16.1,17.8V53h-25.2c0.5,4.9,4.2,9,10.4,9c3.5,0,6.8-1.3,9.3-3.7
	l3.3,4.7c-3.7,3.2-8.4,4.9-13.3,4.8C122.1,67.8,114.8,61,114.8,50.6z M131.4,39.3c-4.9-0.1-8.9,3.7-9.2,8.6h18.4
	c-0.1-4.9-4.1-8.7-9-8.6C131.6,39.3,131.5,39.3,131.4,39.3z"/>
<path class="st0" d="M152.6,50.6c0-9.5,6.9-17.1,16.6-17.1s16.1,7.5,16.1,17.8V53h-25.2c0.5,4.9,4.2,9,10.4,9c3.5,0,6.8-1.3,9.4-3.7
	L183,63c-3.7,3.2-8.4,4.9-13.3,4.8C159.9,67.8,152.6,61,152.6,50.6z M169.1,39.3c-4.9-0.1-8.9,3.7-9.1,8.6h18.4
	c-0.1-4.9-4.1-8.7-9-8.6C169.3,39.3,169.2,39.3,169.1,39.3L169.1,39.3z"/>
<path class="st0" d="M189.5,62.7l3.2-5.1c3,2.8,6.9,4.4,11,4.5c4.3,0,6.5-1.8,6.5-4.3c0-6.4-19.8-1.8-19.8-14.4
	c0-5.3,4.6-9.9,12.9-9.9c4.7-0.1,9.2,1.5,12.7,4.6l-3,5c-2.6-2.6-6.1-4-9.7-3.9c-3.7,0-6,1.8-6,4.1c0,5.8,19.8,1.4,19.8,14.4
	c0,5.8-4.8,10.2-13.6,10.2C197.9,67.8,192.9,66,189.5,62.7z"/>
<path class="st0" d="M231.4,62.5v17h-7.1V34.2h7.1v4.5c2.5-3.3,6.4-5.3,10.5-5.3c8.5,0,14.5,6.4,14.5,17.2s-6,17.2-14.5,17.2
	C237.8,67.8,233.9,65.8,231.4,62.5z M249.1,50.6c0-6.4-3.7-10.8-9.3-10.8c-3.3,0.1-6.4,1.7-8.4,4.3V57c1.9,2.7,5.1,4.4,8.4,4.5
	C245.4,61.5,249.1,57,249.1,50.6z"/>
<path class="st0" d="M263.5,67V34.2h7.1V39c2.5-3.1,6.4-5.6,10.6-5.6v7c-0.7-0.1-1.4-0.2-2.2-0.2c-3,0-7,2-8.5,4.4V67H263.5z"/>
<path class="st0" d="M286.2,25.9c0-2.4,2-4.4,4.4-4.4s4.4,2,4.4,4.4s-2,4.4-4.4,4.4c0,0,0,0,0,0C288.2,30.3,286.2,28.3,286.2,25.9
	C286.2,25.9,286.2,25.9,286.2,25.9z M287.1,67V34.2h7.1V67H287.1z"/>
<path class="st0" d="M325.5,67V46.5c0-5.2-2.6-6.8-6.6-6.8c-3.3,0.1-6.4,1.7-8.4,4.3V67h-7.1V34.2h7.1v4.4c2.9-3.3,7.2-5.2,11.6-5.2
	c7,0,10.6,3.8,10.6,10.5V67H325.5z"/>
<path class="st0" d="M341.5,75.4l3.3-5.2c2.7,3,6.1,4.2,10.4,4.2c4.7,0,9.7-2.2,9.7-9.2v-3.7c-2.4,3.4-6.3,5.4-10.5,5.5
	c-8.3,0-14.5-6-14.5-16.8s6-16.8,14.5-16.8c4.2,0,8.1,2,10.5,5.3v-4.5h7.1v31c0,11.8-8.8,15-16.8,15C349.7,80.3,345.5,79,341.5,75.4
	z M364.9,56.4V44.1c-2-2.7-5.1-4.3-8.4-4.3c-5.7,0-9.3,4.2-9.3,10.5s3.6,10.4,9.3,10.4C359.8,60.6,362.9,59,364.9,56.4L364.9,56.4z"
	/>
</svg>
