<svg id="Layer_1" data-name="Layer 1" xmlns="http://www.w3.org/2000/svg" viewBox="0 0 633 733.84"><defs><style>.cls-1{fill:#fff;}.cls-2{fill:#fefdfe;}</style></defs><title>Artboard 1</title><path class="cls-1" d="M316.42,733.84A288.47,288.47,0,0,0,286,692.17q-68.32-76.77-169.76-93.29A292.82,292.82,0,0,0,70,595.4c-40.23-.16-70-30-70-70.2q0-227.49,0-455C0,30,29.93,0,70,0H563c40.08,0,70,30,70,70.2q0,227.74,0,455.49c0,39.53-29.88,69.15-69.48,69.77q-158.67,2.47-245.25,135.69C317.73,732,317.15,732.78,316.42,733.84Zm-.61-178.32c127.43.29,233.91-100.31,237.88-230.19,4.08-133.51-99.45-242.65-232-246.08C192.35,75.9,82.35,180.78,79.06,310,75.62,444.75,182.2,554.93,315.81,555.52Z"/><path class="cls-2" d="M197.86,291.93A62.4,62.4,0,0,1,305.3,248.43a96.79,96.79,0,0,1,8.11,8.82c2.48,3.31,4.1,2.66,6.31-.18s4.67-5.2,7.08-7.74c24.17-25.42,62.47-27.08,88-3.84a62.37,62.37,0,0,1,4.4,88c-33.16,36.7-66.92,72.86-100.34,109.33-2.08,2.27-3.06,1.81-4.88-.18q-50-54.49-100.07-108.9C203.13,322,197.93,307.9,197.86,291.93Z"/></svg>