<svg id="Layer_1" data-name="Layer 1" xmlns="http://www.w3.org/2000/svg" viewBox="0 0 115.71 137.12"><defs><style>.cls-1{fill:#fff;}</style></defs><title>viewfinder-logomark</title><path class="cls-1" d="M57.86,41.37A16.53,16.53,0,1,1,41.33,57.9,16.57,16.57,0,0,1,57.86,41.37Zm0-20.71A37.22,37.22,0,1,1,20.66,57.9,37.28,37.28,0,0,1,57.86,20.66ZM97.8,8.31A9.64,9.64,0,1,1,88.16,18,9.69,9.69,0,0,1,97.8,8.31ZM16.53,0A16.52,16.52,0,0,0,0,16.57V99.18a16.49,16.49,0,0,0,16.53,16.53H99.18a16.49,16.49,0,0,0,16.53-16.53V16.57A16.52,16.52,0,0,0,99.18,0Z"/><path class="cls-1" d="M83.86,111.57,64.64,134.31a9.6,9.6,0,0,1-13.56,0L31.85,111.57a9.6,9.6,0,0,1,0-13.56h52A9.58,9.58,0,0,1,83.86,111.57Z"/></svg>