<svg id="Layer_1" data-name="Layer 1" xmlns="http://www.w3.org/2000/svg" viewBox="0 0 342.51 280.98"><defs><style>.cls-1{fill:#fff;}</style></defs><title>Artboard 1</title><path class="cls-1" d="M342.28,152.81c-.21-2.38-2.67-5.88-4.72-6.41s-5.31,1.53-7.41,3.23c-1.53,1.24-2.08,3.71-3,5.66-4.35,9.28-9.55,18-17.89,24.27s-19.4,4.95-25-3.49a9.84,9.84,0,0,1-1-6.82c1.3-6.16,3.4-12.15,4.84-18.29,6-25.66,11-51.47,7.4-78-1.74-13-5.58-25.41-14.18-35.72-7.88-9.45-17.74-15.12-30.51-13.68-20.76,2.35-32.66,15-38.55,34.11-5.07,16.47-4.89,33.43-4.26,50.47.93,25.22,9.57,47.07,27.35,65.08,2.19,2.22,3,4.07,1.46,6.85-6.72,12-12.73,24.53-20.35,36-4.09,6.15-10.43,11.18-16.61,15.48-7.1,4.94-15.29,3.23-21.14-3.23-2.1-2.32-3.61-5.16-5.43-7.74-1.94-2.76-1.48-5.07,0-8.16,6.42-12.94,13.11-25.82,18.25-39.29,6.79-17.8,9.48-36.43,5-55.35-3.55-14.86-16-20.24-29.64-13.28-7.91,4.05-13,10.74-17,18.39-7.45,14.28-10.67,29.78-11.61,45.61-.8,13.42-.11,26.93-.27,40.4,0,2.14-.35,5.06-1.72,6.27-4.58,4.05-9.37,8.09-14.68,11-9.21,5.1-16,2-19-8.14-3.66-12.22-2.21-24.59.74-36.5,6.18-25,13.37-49.71,20-74.58,5.37-20.07,11.54-40.07,8.21-61.31-2.66-16.9-10.58-30.37-26-38.66C83.33-4.91,55.12-1.47,34.59,16.23,9,38.31-2.3,66.73.39,100.25a55.16,55.16,0,0,0,7.29,22.46c6.79,11.72,23.54,16.14,38.78,11.85S70,120.12,69.23,104.31c-.39-7.59-3.16-15.16-5.54-22.52-2.43-7.51-3.42-14.94-1.09-22.51C64.5,53.13,69.54,50,76,50.35c5.37.29,8.32,2.67,9.22,9.8.84,6.69,1.3,13.77,0,20.31-2.71,14.18-6.41,28.19-10.1,42.17-7.59,28.75-17.51,56.93-21.54,86.54-2.21,16.24-1.23,32.29,6.37,47.27,9.23,18.19,24.89,25.16,44.42,19.78,12.81-3.53,23.44-10.93,33.26-19.62,2.8-2.48,5.52-5.06,8.3-7.62,2.71,4.72,4.8,9.09,7.53,13,9.9,14.15,23.31,20.65,40.79,18.65,18.16-2.08,31.85-11.87,43.82-24.66,13.45-14.37,22.68-31.51,31.27-49.45,17.85,11.65,31.15,11.82,47.26-.29a75.5,75.5,0,0,0,15.08-15.79A54.2,54.2,0,0,0,342.28,152.81Zm-93.28-1c-4.8-8.12-7.6-15.62-7.39-23.73,0,0-2-60.69,5.63-65,7-4,15,0,15,9S254.15,131.09,249,151.85Z"/></svg>